<?xml version="1.0" encoding="UTF-8" standalone="no"?>
<svg
   xmlns:dc="http://purl.org/dc/elements/1.1/"
   xmlns:cc="http://creativecommons.org/ns#"
   xmlns:rdf="http://www.w3.org/1999/02/22-rdf-syntax-ns#"
   xmlns:svg="http://www.w3.org/2000/svg"
   xmlns="http://www.w3.org/2000/svg"
   xmlns:xlink="http://www.w3.org/1999/xlink"
   xmlns:sodipodi="http://sodipodi.sourceforge.net/DTD/sodipodi-0.dtd"
   xmlns:inkscape="http://www.inkscape.org/namespaces/inkscape"
   viewBox="0 0 612.71002 765.76787"
   version="1.1"
   id="svg41"
   sodipodi:docname="North arrow.svg"
   inkscape:version="0.92.1 r15371">
  <metadata
     id="metadata45">
    <rdf:RDF>
      <cc:Work
         rdf:about="">
        <dc:format>image/svg+xml</dc:format>
        <dc:type
           rdf:resource="http://purl.org/dc/dcmitype/StillImage" />
      </cc:Work>
    </rdf:RDF>
  </metadata>
  
  <title
     id="title20">North arrow</title>
  <g
     id="symbol">
    <path
       fill="param(fill) #000" fill-opacity="param(fill-opacity)" 
       d="m 306.38,118.54 53.8,241.94 72,-48.32 -48.77,71.62 202.27,53.77 -199.71,53.81 47,72.12 -72.77,-48.8 -53.85,202.08 -53.85,-202.09 -72.53,48.67 47.65,-71.95 -200.51,-53.82 202.18,-53.73 -49,-72 73.84,48.64 52.25,-241.94"
       id="path4495" />
	<path
       d="m 616.39,885.47 -58.09,-218 -93.4,62.7 61.56,-93 -216.46,-58.11 218,-58 -63.39,-93.06 95.23,62.72 56.5,-258.24 58.13,258.22 93.91,-63 -63.6,93.4 217.93,58 -215.64,58.05 60.55,92.85 -93.15,-62.53 z M 562.53,656.19 616.38,858.28 670.23,656.2 743,705 696,632.88 895.71,579.07 693.44,525.3 742.21,453.68 670.21,502 616.41,260.06 564.16,502 l -73.84,-48.64 49,72 -202.18,53.73 200.51,53.82 -47.65,71.95 z"
       transform="translate(-310.03,-141.52)"
       id="path22"
       inkscape:connector-curvature="0"
       fill="param(outline) #000" fill-opacity="param(outline-opacity)" />
    <polygon
       
       points="306.36,118.54 306.36,437.55 250.39,354.83 "
       id="polygon24"
       fill="param(outline) #000" fill-opacity="param(outline-opacity)" />
    <polygon
       
       points="306.36,437.55 389.1,493.51 599.15,437.55 "
       id="polygon26"
       fill="param(outline) #000" fill-opacity="param(outline-opacity)" />
    <polygon
       
       points="306.36,437.55 223.61,493.51 13.56,437.56 "
       id="polygon28"
       fill="param(outline) #000" fill-opacity="param(outline-opacity)" />
    <polygon
       
       points="306.1,437.81 223.38,381.84 167.7,298.9 "
       id="polygon30"
       fill="param(outline) #000" fill-opacity="param(outline-opacity)" />
    <polygon
       
       points="306.36,437.55 362.33,354.84 445.27,299.16 "
       id="polygon32"
       fill="param(outline) #000" fill-opacity="param(outline-opacity)" />
    <polygon
       
       points="167.44,575.99 250.54,520.08 306.35,730.35 306.36,437.6 306.36,437.6 306.36,437.55 306.26,437.69 "
       id="polygon34"
       fill="param(outline) #000" fill-opacity="param(outline-opacity)" />
    <polygon
       
       points="306.36,437.6 362.33,520.31 445.27,575.99 "
       id="polygon36"
       fill="param(outline) #000" fill-opacity="param(outline-opacity)" />
	
  </g>
  <path
     fill="param(outline) #000" fill-opacity="param(outline-opacity)" 
     d="m 268.903,80.65645 -0.0352,-89.507464 c -4.92916,-7.780129 -12.32282,-10.373505 -20.94876,-10.373505 h -3.69683 v -2.593377 h 32.07766 c 0.72792,0 0.91195,0.120981 1.19382,0.314642 0.28187,0.193608 0.48653,0.431978 0.66438,0.704905 l 58.48492,89.748629 v -82.988047 c 0,-3.890064 -6.16139,-5.186752 -14.78733,-5.186752 h -3.69683 v -2.593377 h 43.1297 v 2.593377 h -3.69683 c -8.62594,1.3e-5 -13.55505,1.296688 -13.55505,5.186752 L 342.81992,87.10761 c -0.005,0.36036 0.0445,0.70361 -0.24701,1.00647 -0.30301,0.31484 -0.68896,0.28652 -1.0461,0.28652 h -6.09945 c -0.42729,0 -0.91301,-0.11151 -1.24893,-0.3039 -0.33592,-0.19242 -0.51261,-0.44273 -0.70353,-0.72316 L 275.02914,1.522492 V 80.62048 c 0,3.89006 6.16138,5.18675 14.78732,5.18675 h 3.69683 V 88.4006 H 250.3836 v -2.59337 l 3.69683,0.0262 c 8.62594,0.0612 14.78885,-1.32291 14.78732,-5.21297 z"
     id="path3763"
     inkscape:connector-curvature="0"
     sodipodi:nodetypes="cccccczsccsccccscsssszsccsccccscc"
     inkscape:label="letterN" />
</svg>
